<mxfile host="app.diagrams.net" agent="Mozilla/5.0 (Windows NT 10.0; Win64; x64) AppleWebKit/537.36 (KHTML, like Gecko) Chrome/134.0.0.0 Safari/537.36" version="26.2.2">
  <diagram name="1 oldal" id="U9L_mThEmQpJSMEXH2Y8">
    <mxGraphModel dx="2009" dy="630" grid="1" gridSize="10" guides="1" tooltips="1" connect="1" arrows="1" fold="1" page="1" pageScale="1" pageWidth="827" pageHeight="1169" math="0" shadow="0">
      <root>
        <mxCell id="0" />
        <mxCell id="1" parent="0" />
        <mxCell id="KCTWwPVUpBCsBgQBtSwJ-1" value="&lt;font style=&quot;vertical-align: inherit;&quot;&gt;&lt;font style=&quot;vertical-align: inherit;&quot;&gt;Termék&lt;/font&gt;&lt;/font&gt;" style="rounded=0;whiteSpace=wrap;html=1;" vertex="1" parent="1">
          <mxGeometry x="150" y="867.42" width="164.58" height="92.58" as="geometry" />
        </mxCell>
        <mxCell id="KCTWwPVUpBCsBgQBtSwJ-2" value="&lt;font style=&quot;vertical-align: inherit;&quot;&gt;&lt;font style=&quot;vertical-align: inherit;&quot;&gt;Gyártó&lt;/font&gt;&lt;/font&gt;" style="rounded=0;whiteSpace=wrap;html=1;" vertex="1" parent="1">
          <mxGeometry x="680" y="867.42" width="152.79" height="85.95" as="geometry" />
        </mxCell>
        <mxCell id="KCTWwPVUpBCsBgQBtSwJ-3" value="&lt;font style=&quot;vertical-align: inherit;&quot;&gt;&lt;font style=&quot;vertical-align: inherit;&quot;&gt;&lt;u&gt;Tkód&lt;/u&gt;&lt;/font&gt;&lt;/font&gt;" style="ellipse;whiteSpace=wrap;html=1;" vertex="1" parent="1">
          <mxGeometry x="70" y="1011.66" width="81.86" height="54.57" as="geometry" />
        </mxCell>
        <mxCell id="KCTWwPVUpBCsBgQBtSwJ-4" value="&lt;font style=&quot;vertical-align: inherit;&quot;&gt;&lt;font style=&quot;vertical-align: inherit;&quot;&gt;&lt;font style=&quot;vertical-align: inherit;&quot;&gt;&lt;font style=&quot;vertical-align: inherit;&quot;&gt;név&lt;/font&gt;&lt;/font&gt;&lt;/font&gt;&lt;/font&gt;" style="ellipse;whiteSpace=wrap;html=1;" vertex="1" parent="1">
          <mxGeometry x="190" y="1010" width="85.6" height="57.07" as="geometry" />
        </mxCell>
        <mxCell id="KCTWwPVUpBCsBgQBtSwJ-5" value="&lt;font style=&quot;vertical-align: inherit;&quot;&gt;&lt;font style=&quot;vertical-align: inherit;&quot;&gt;&lt;font style=&quot;vertical-align: inherit;&quot;&gt;&lt;font style=&quot;vertical-align: inherit;&quot;&gt;&lt;font style=&quot;vertical-align: inherit;&quot;&gt;&lt;font style=&quot;vertical-align: inherit;&quot;&gt;ear&lt;/font&gt;&lt;/font&gt;&lt;/font&gt;&lt;/font&gt;&lt;/font&gt;&lt;/font&gt;" style="ellipse;whiteSpace=wrap;html=1;" vertex="1" parent="1">
          <mxGeometry x="290" y="1011.67" width="81.85" height="54.57" as="geometry" />
        </mxCell>
        <mxCell id="KCTWwPVUpBCsBgQBtSwJ-6" value="&lt;font style=&quot;vertical-align: inherit;&quot;&gt;&lt;font style=&quot;vertical-align: inherit;&quot;&gt;&lt;u&gt;&lt;font style=&quot;vertical-align: inherit;&quot;&gt;&lt;font style=&quot;vertical-align: inherit;&quot;&gt;Adószám&lt;/font&gt;&lt;/font&gt;&lt;/u&gt;&lt;/font&gt;&lt;/font&gt;" style="ellipse;whiteSpace=wrap;html=1;" vertex="1" parent="1">
          <mxGeometry x="563.4" y="1000.83" width="80.6" height="53.74" as="geometry" />
        </mxCell>
        <mxCell id="KCTWwPVUpBCsBgQBtSwJ-7" value="&lt;font style=&quot;vertical-align: inherit;&quot;&gt;&lt;font style=&quot;vertical-align: inherit;&quot;&gt;&lt;font style=&quot;vertical-align: inherit;&quot;&gt;&lt;font style=&quot;vertical-align: inherit;&quot;&gt;név&lt;/font&gt;&lt;/font&gt;&lt;/font&gt;&lt;/font&gt;" style="ellipse;whiteSpace=wrap;html=1;" vertex="1" parent="1">
          <mxGeometry x="663.4" y="1000" width="83.11" height="55.4" as="geometry" />
        </mxCell>
        <mxCell id="KCTWwPVUpBCsBgQBtSwJ-8" value="&lt;font style=&quot;vertical-align: inherit;&quot;&gt;&lt;font style=&quot;vertical-align: inherit;&quot;&gt;telephely&lt;/font&gt;&lt;/font&gt;" style="ellipse;whiteSpace=wrap;html=1;" vertex="1" parent="1">
          <mxGeometry x="762.91" y="1000.83" width="85.98" height="53.74" as="geometry" />
        </mxCell>
        <mxCell id="KCTWwPVUpBCsBgQBtSwJ-9" value="&lt;font style=&quot;vertical-align: inherit;&quot;&gt;&lt;font style=&quot;vertical-align: inherit;&quot;&gt;Készíti&lt;/font&gt;&lt;/font&gt;" style="rhombus;whiteSpace=wrap;html=1;" vertex="1" parent="1">
          <mxGeometry x="447.83" y="857.62" width="112.17" height="112.17" as="geometry" />
        </mxCell>
        <mxCell id="KCTWwPVUpBCsBgQBtSwJ-10" value="" style="endArrow=none;html=1;rounded=0;entryX=0.143;entryY=0.977;entryDx=0;entryDy=0;entryPerimeter=0;exitX=0.692;exitY=-0.016;exitDx=0;exitDy=0;exitPerimeter=0;" edge="1" parent="1" source="KCTWwPVUpBCsBgQBtSwJ-3" target="KCTWwPVUpBCsBgQBtSwJ-1">
          <mxGeometry width="50" height="50" relative="1" as="geometry">
            <mxPoint x="240" y="999" as="sourcePoint" />
            <mxPoint x="101.32999999999993" y="972" as="targetPoint" />
          </mxGeometry>
        </mxCell>
        <mxCell id="KCTWwPVUpBCsBgQBtSwJ-11" value="" style="endArrow=none;html=1;rounded=0;entryX=0.503;entryY=0.977;entryDx=0;entryDy=0;entryPerimeter=0;exitX=0.539;exitY=0.041;exitDx=0;exitDy=0;exitPerimeter=0;" edge="1" parent="1" source="KCTWwPVUpBCsBgQBtSwJ-4" target="KCTWwPVUpBCsBgQBtSwJ-1">
          <mxGeometry width="50" height="50" relative="1" as="geometry">
            <mxPoint x="164.35" y="1002" as="sourcePoint" />
            <mxPoint x="164.5" y="972" as="targetPoint" />
          </mxGeometry>
        </mxCell>
        <mxCell id="KCTWwPVUpBCsBgQBtSwJ-12" value="" style="endArrow=none;html=1;rounded=0;exitX=0.353;exitY=0.076;exitDx=0;exitDy=0;exitPerimeter=0;entryX=0.853;entryY=0.977;entryDx=0;entryDy=0;entryPerimeter=0;" edge="1" parent="1" source="KCTWwPVUpBCsBgQBtSwJ-5" target="KCTWwPVUpBCsBgQBtSwJ-1">
          <mxGeometry width="50" height="50" relative="1" as="geometry">
            <mxPoint x="375.3649999999999" y="996.9136199999998" as="sourcePoint" />
            <mxPoint x="224.64999999999998" y="972" as="targetPoint" />
          </mxGeometry>
        </mxCell>
        <mxCell id="KCTWwPVUpBCsBgQBtSwJ-13" value="" style="endArrow=none;html=1;rounded=0;exitX=0.933;exitY=0.508;exitDx=0;exitDy=0;exitPerimeter=0;entryX=0;entryY=0.556;entryDx=0;entryDy=0;entryPerimeter=0;" edge="1" parent="1" source="KCTWwPVUpBCsBgQBtSwJ-9" target="KCTWwPVUpBCsBgQBtSwJ-2">
          <mxGeometry width="50" height="50" relative="1" as="geometry">
            <mxPoint x="373.68" y="931.56" as="sourcePoint" />
            <mxPoint x="490" y="932" as="targetPoint" />
          </mxGeometry>
        </mxCell>
        <mxCell id="KCTWwPVUpBCsBgQBtSwJ-14" value="" style="endArrow=none;html=1;rounded=0;exitX=0.998;exitY=0.569;exitDx=0;exitDy=0;exitPerimeter=0;entryX=0.076;entryY=0.562;entryDx=0;entryDy=0;entryPerimeter=0;" edge="1" parent="1" source="KCTWwPVUpBCsBgQBtSwJ-1" target="KCTWwPVUpBCsBgQBtSwJ-9">
          <mxGeometry width="50" height="50" relative="1" as="geometry">
            <mxPoint x="179" y="932" as="sourcePoint" />
            <mxPoint x="360" y="950" as="targetPoint" />
          </mxGeometry>
        </mxCell>
        <mxCell id="KCTWwPVUpBCsBgQBtSwJ-15" value="N" style="text;html=1;align=center;verticalAlign=middle;resizable=0;points=[];autosize=1;strokeColor=none;fillColor=none;" vertex="1" parent="1">
          <mxGeometry x="371.85" y="910" width="30" height="30" as="geometry" />
        </mxCell>
        <mxCell id="KCTWwPVUpBCsBgQBtSwJ-16" value="1" style="text;html=1;align=center;verticalAlign=middle;resizable=0;points=[];autosize=1;strokeColor=none;fillColor=none;" vertex="1" parent="1">
          <mxGeometry x="600" y="910" width="30" height="30" as="geometry" />
        </mxCell>
        <mxCell id="KCTWwPVUpBCsBgQBtSwJ-17" value="&lt;font style=&quot;vertical-align: inherit;&quot;&gt;&lt;font style=&quot;vertical-align: inherit;&quot;&gt;postai cím&lt;/font&gt;&lt;/font&gt;" style="ellipse;whiteSpace=wrap;html=1;" vertex="1" parent="1">
          <mxGeometry x="863.4" y="1002.49" width="85.98" height="53.74" as="geometry" />
        </mxCell>
        <mxCell id="KCTWwPVUpBCsBgQBtSwJ-18" value="Irsz" style="ellipse;whiteSpace=wrap;html=1;" vertex="1" parent="1">
          <mxGeometry x="816.0500000000001" y="1090" width="60" height="40" as="geometry" />
        </mxCell>
        <mxCell id="KCTWwPVUpBCsBgQBtSwJ-19" value="" style="endArrow=none;html=1;rounded=0;entryX=0.013;entryY=1.003;entryDx=0;entryDy=0;entryPerimeter=0;exitX=0.887;exitY=0.126;exitDx=0;exitDy=0;exitPerimeter=0;" edge="1" parent="1" source="KCTWwPVUpBCsBgQBtSwJ-6" target="KCTWwPVUpBCsBgQBtSwJ-2">
          <mxGeometry width="50" height="50" relative="1" as="geometry">
            <mxPoint x="636.5" y="1006.67" as="sourcePoint" />
            <mxPoint x="683.5" y="953.67" as="targetPoint" />
          </mxGeometry>
        </mxCell>
        <mxCell id="KCTWwPVUpBCsBgQBtSwJ-20" value="" style="endArrow=none;html=1;rounded=0;entryX=0.194;entryY=1.032;entryDx=0;entryDy=0;entryPerimeter=0;exitX=0.534;exitY=0.005;exitDx=0;exitDy=0;exitPerimeter=0;" edge="1" parent="1" source="KCTWwPVUpBCsBgQBtSwJ-7" target="KCTWwPVUpBCsBgQBtSwJ-2">
          <mxGeometry width="50" height="50" relative="1" as="geometry">
            <mxPoint x="713" y="1007.37" as="sourcePoint" />
            <mxPoint x="710" y="953.37" as="targetPoint" />
          </mxGeometry>
        </mxCell>
        <mxCell id="KCTWwPVUpBCsBgQBtSwJ-21" value="" style="endArrow=none;html=1;rounded=0;exitX=0.356;exitY=-0.002;exitDx=0;exitDy=0;exitPerimeter=0;entryX=0.732;entryY=1.003;entryDx=0;entryDy=0;entryPerimeter=0;" edge="1" parent="1" source="KCTWwPVUpBCsBgQBtSwJ-8" target="KCTWwPVUpBCsBgQBtSwJ-2">
          <mxGeometry width="50" height="50" relative="1" as="geometry">
            <mxPoint x="828.5" y="1011.67" as="sourcePoint" />
            <mxPoint x="799.5" y="953.67" as="targetPoint" />
          </mxGeometry>
        </mxCell>
        <mxCell id="KCTWwPVUpBCsBgQBtSwJ-22" value="" style="endArrow=none;html=1;rounded=0;entryX=0.975;entryY=1.011;entryDx=0;entryDy=0;entryPerimeter=0;exitX=0.438;exitY=0.014;exitDx=0;exitDy=0;exitPerimeter=0;" edge="1" parent="1" source="KCTWwPVUpBCsBgQBtSwJ-17" target="KCTWwPVUpBCsBgQBtSwJ-2">
          <mxGeometry width="50" height="50" relative="1" as="geometry">
            <mxPoint x="830" y="1002.49" as="sourcePoint" />
            <mxPoint x="877" y="948.49" as="targetPoint" />
          </mxGeometry>
        </mxCell>
        <mxCell id="KCTWwPVUpBCsBgQBtSwJ-23" value="Város" style="ellipse;whiteSpace=wrap;html=1;" vertex="1" parent="1">
          <mxGeometry x="877.1600000000001" y="1090" width="60" height="40" as="geometry" />
        </mxCell>
        <mxCell id="KCTWwPVUpBCsBgQBtSwJ-24" value="utca" style="ellipse;whiteSpace=wrap;html=1;" vertex="1" parent="1">
          <mxGeometry x="937.1600000000001" y="1090" width="60" height="40" as="geometry" />
        </mxCell>
        <mxCell id="KCTWwPVUpBCsBgQBtSwJ-25" value="Házszám" style="ellipse;whiteSpace=wrap;html=1;" vertex="1" parent="1">
          <mxGeometry x="997.1600000000001" y="1090" width="60" height="40" as="geometry" />
        </mxCell>
        <mxCell id="KCTWwPVUpBCsBgQBtSwJ-26" value="Ország" style="ellipse;whiteSpace=wrap;html=1;" vertex="1" parent="1">
          <mxGeometry x="755.62" y="1090" width="60" height="40" as="geometry" />
        </mxCell>
        <mxCell id="KCTWwPVUpBCsBgQBtSwJ-27" value="" style="endArrow=none;html=1;rounded=0;exitX=0.871;exitY=0.065;exitDx=0;exitDy=0;exitPerimeter=0;entryX=0.05;entryY=0.69;entryDx=0;entryDy=0;entryPerimeter=0;" edge="1" parent="1" source="KCTWwPVUpBCsBgQBtSwJ-26" target="KCTWwPVUpBCsBgQBtSwJ-17">
          <mxGeometry width="50" height="50" relative="1" as="geometry">
            <mxPoint x="816.05" y="1090" as="sourcePoint" />
            <mxPoint x="866.05" y="1040" as="targetPoint" />
          </mxGeometry>
        </mxCell>
        <mxCell id="KCTWwPVUpBCsBgQBtSwJ-28" value="" style="endArrow=none;html=1;rounded=0;exitX=0.707;exitY=0.079;exitDx=0;exitDy=0;exitPerimeter=0;entryX=0.253;entryY=0.933;entryDx=0;entryDy=0;entryPerimeter=0;" edge="1" parent="1" source="KCTWwPVUpBCsBgQBtSwJ-18" target="KCTWwPVUpBCsBgQBtSwJ-17">
          <mxGeometry width="50" height="50" relative="1" as="geometry">
            <mxPoint x="840" y="1104.57" as="sourcePoint" />
            <mxPoint x="890" y="1054.57" as="targetPoint" />
          </mxGeometry>
        </mxCell>
        <mxCell id="KCTWwPVUpBCsBgQBtSwJ-29" value="" style="endArrow=none;html=1;rounded=0;exitX=0.49;exitY=-0.06;exitDx=0;exitDy=0;exitPerimeter=0;entryX=0.521;entryY=0.995;entryDx=0;entryDy=0;entryPerimeter=0;" edge="1" parent="1" source="KCTWwPVUpBCsBgQBtSwJ-23" target="KCTWwPVUpBCsBgQBtSwJ-17">
          <mxGeometry width="50" height="50" relative="1" as="geometry">
            <mxPoint x="880" y="1096.23" as="sourcePoint" />
            <mxPoint x="907" y="1056.23" as="targetPoint" />
          </mxGeometry>
        </mxCell>
        <mxCell id="KCTWwPVUpBCsBgQBtSwJ-30" value="" style="endArrow=none;html=1;rounded=0;exitX=0.393;exitY=0.031;exitDx=0;exitDy=0;exitPerimeter=0;entryX=0.78;entryY=0.922;entryDx=0;entryDy=0;entryPerimeter=0;" edge="1" parent="1" source="KCTWwPVUpBCsBgQBtSwJ-24" target="KCTWwPVUpBCsBgQBtSwJ-17">
          <mxGeometry width="50" height="50" relative="1" as="geometry">
            <mxPoint x="930" y="1086.57" as="sourcePoint" />
            <mxPoint x="931" y="1054.57" as="targetPoint" />
          </mxGeometry>
        </mxCell>
        <mxCell id="KCTWwPVUpBCsBgQBtSwJ-31" value="" style="endArrow=none;html=1;rounded=0;exitX=0.319;exitY=0.031;exitDx=0;exitDy=0;exitPerimeter=0;entryX=0.961;entryY=0.628;entryDx=0;entryDy=0;entryPerimeter=0;" edge="1" parent="1" source="KCTWwPVUpBCsBgQBtSwJ-25" target="KCTWwPVUpBCsBgQBtSwJ-17">
          <mxGeometry width="50" height="50" relative="1" as="geometry">
            <mxPoint x="980.38" y="1079" as="sourcePoint" />
            <mxPoint x="949.38" y="1040" as="targetPoint" />
          </mxGeometry>
        </mxCell>
        <mxCell id="KCTWwPVUpBCsBgQBtSwJ-36" value="Egységnév" style="rounded=0;whiteSpace=wrap;html=1;" vertex="1" parent="1">
          <mxGeometry x="-120" y="883.71" width="120" height="60" as="geometry" />
        </mxCell>
        <mxCell id="KCTWwPVUpBCsBgQBtSwJ-37" value="Tartalmaz" style="rhombus;whiteSpace=wrap;html=1;" vertex="1" parent="1">
          <mxGeometry x="40" y="883.71" width="60" height="60" as="geometry" />
        </mxCell>
        <mxCell id="KCTWwPVUpBCsBgQBtSwJ-38" value="" style="endArrow=none;html=1;rounded=0;exitX=1;exitY=0.5;exitDx=0;exitDy=0;entryX=-0.011;entryY=0.501;entryDx=0;entryDy=0;entryPerimeter=0;" edge="1" parent="1" source="KCTWwPVUpBCsBgQBtSwJ-37" target="KCTWwPVUpBCsBgQBtSwJ-1">
          <mxGeometry width="50" height="50" relative="1" as="geometry">
            <mxPoint x="101.86" y="960" as="sourcePoint" />
            <mxPoint x="151.86" y="910" as="targetPoint" />
          </mxGeometry>
        </mxCell>
        <mxCell id="KCTWwPVUpBCsBgQBtSwJ-39" value="" style="endArrow=none;html=1;rounded=0;exitX=1.004;exitY=0.532;exitDx=0;exitDy=0;entryX=-0.03;entryY=0.521;entryDx=0;entryDy=0;entryPerimeter=0;exitPerimeter=0;" edge="1" parent="1" source="KCTWwPVUpBCsBgQBtSwJ-36" target="KCTWwPVUpBCsBgQBtSwJ-37">
          <mxGeometry width="50" height="50" relative="1" as="geometry">
            <mxPoint x="-8" y="913.6" as="sourcePoint" />
            <mxPoint x="40" y="913.6" as="targetPoint" />
          </mxGeometry>
        </mxCell>
        <mxCell id="KCTWwPVUpBCsBgQBtSwJ-40" value="darabszám" style="ellipse;whiteSpace=wrap;html=1;" vertex="1" parent="1">
          <mxGeometry x="40" y="960.83" width="60" height="40" as="geometry" />
        </mxCell>
        <mxCell id="KCTWwPVUpBCsBgQBtSwJ-41" value="" style="endArrow=none;html=1;rounded=0;exitX=0.471;exitY=0.003;exitDx=0;exitDy=0;exitPerimeter=0;entryX=0.467;entryY=0.934;entryDx=0;entryDy=0;entryPerimeter=0;" edge="1" parent="1" source="KCTWwPVUpBCsBgQBtSwJ-40" target="KCTWwPVUpBCsBgQBtSwJ-37">
          <mxGeometry width="50" height="50" relative="1" as="geometry">
            <mxPoint x="-110" y="993.71" as="sourcePoint" />
            <mxPoint x="-60" y="943.71" as="targetPoint" />
          </mxGeometry>
        </mxCell>
        <mxCell id="KCTWwPVUpBCsBgQBtSwJ-42" value="N" style="text;html=1;align=center;verticalAlign=middle;whiteSpace=wrap;rounded=0;" vertex="1" parent="1">
          <mxGeometry x="90" y="910" width="60" height="30" as="geometry" />
        </mxCell>
        <mxCell id="KCTWwPVUpBCsBgQBtSwJ-44" value="M" style="text;html=1;align=center;verticalAlign=middle;whiteSpace=wrap;rounded=0;" vertex="1" parent="1">
          <mxGeometry x="-10" y="910" width="60" height="30" as="geometry" />
        </mxCell>
        <mxCell id="KCTWwPVUpBCsBgQBtSwJ-45" value="Alkatrész" style="rounded=0;whiteSpace=wrap;html=1;" vertex="1" parent="1">
          <mxGeometry x="152.29000000000002" y="650" width="160" height="80" as="geometry" />
        </mxCell>
        <mxCell id="KCTWwPVUpBCsBgQBtSwJ-46" value="Felépül" style="rhombus;whiteSpace=wrap;html=1;" vertex="1" parent="1">
          <mxGeometry x="192.29" y="760" width="80" height="80" as="geometry" />
        </mxCell>
        <mxCell id="KCTWwPVUpBCsBgQBtSwJ-47" value="" style="endArrow=none;html=1;rounded=0;entryX=0.525;entryY=0.977;entryDx=0;entryDy=0;entryPerimeter=0;exitX=0.514;exitY=-0.022;exitDx=0;exitDy=0;exitPerimeter=0;" edge="1" parent="1" source="KCTWwPVUpBCsBgQBtSwJ-1" target="KCTWwPVUpBCsBgQBtSwJ-46">
          <mxGeometry width="50" height="50" relative="1" as="geometry">
            <mxPoint x="180" y="890" as="sourcePoint" />
            <mxPoint x="230" y="840" as="targetPoint" />
          </mxGeometry>
        </mxCell>
        <mxCell id="KCTWwPVUpBCsBgQBtSwJ-48" value="" style="endArrow=none;html=1;rounded=0;entryX=0.502;entryY=1.026;entryDx=0;entryDy=0;entryPerimeter=0;exitX=0.504;exitY=0.033;exitDx=0;exitDy=0;exitPerimeter=0;" edge="1" parent="1" source="KCTWwPVUpBCsBgQBtSwJ-46" target="KCTWwPVUpBCsBgQBtSwJ-45">
          <mxGeometry width="50" height="50" relative="1" as="geometry">
            <mxPoint x="232.79" y="760" as="sourcePoint" />
            <mxPoint x="231.79" y="733" as="targetPoint" />
          </mxGeometry>
        </mxCell>
        <mxCell id="KCTWwPVUpBCsBgQBtSwJ-49" value="&lt;u&gt;Akód&lt;/u&gt;" style="ellipse;whiteSpace=wrap;html=1;" vertex="1" parent="1">
          <mxGeometry x="40" y="630" width="75" height="50" as="geometry" />
        </mxCell>
        <mxCell id="KCTWwPVUpBCsBgQBtSwJ-50" value="Név" style="ellipse;whiteSpace=wrap;html=1;" vertex="1" parent="1">
          <mxGeometry x="40" y="700" width="75" height="50" as="geometry" />
        </mxCell>
        <mxCell id="KCTWwPVUpBCsBgQBtSwJ-51" value="" style="endArrow=none;html=1;rounded=0;exitX=0.013;exitY=0.336;exitDx=0;exitDy=0;exitPerimeter=0;entryX=0.947;entryY=0.663;entryDx=0;entryDy=0;entryPerimeter=0;" edge="1" parent="1" source="KCTWwPVUpBCsBgQBtSwJ-45" target="KCTWwPVUpBCsBgQBtSwJ-49">
          <mxGeometry width="50" height="50" relative="1" as="geometry">
            <mxPoint x="65" y="710" as="sourcePoint" />
            <mxPoint x="115" y="660" as="targetPoint" />
          </mxGeometry>
        </mxCell>
        <mxCell id="KCTWwPVUpBCsBgQBtSwJ-52" value="" style="endArrow=none;html=1;rounded=0;exitX=0.939;exitY=0.349;exitDx=0;exitDy=0;exitPerimeter=0;entryX=0.003;entryY=0.614;entryDx=0;entryDy=0;entryPerimeter=0;" edge="1" parent="1" source="KCTWwPVUpBCsBgQBtSwJ-50" target="KCTWwPVUpBCsBgQBtSwJ-45">
          <mxGeometry width="50" height="50" relative="1" as="geometry">
            <mxPoint x="101.86000000000001" y="750" as="sourcePoint" />
            <mxPoint x="151.86" y="700" as="targetPoint" />
          </mxGeometry>
        </mxCell>
        <mxCell id="KCTWwPVUpBCsBgQBtSwJ-53" value="N" style="text;html=1;align=center;verticalAlign=middle;whiteSpace=wrap;rounded=0;" vertex="1" parent="1">
          <mxGeometry x="215.6" y="837.42" width="60" height="30" as="geometry" />
        </mxCell>
        <mxCell id="KCTWwPVUpBCsBgQBtSwJ-54" value="M" style="text;html=1;align=center;verticalAlign=middle;whiteSpace=wrap;rounded=0;" vertex="1" parent="1">
          <mxGeometry x="215.6" y="730" width="60" height="30" as="geometry" />
        </mxCell>
      </root>
    </mxGraphModel>
  </diagram>
</mxfile>
